<?xml version="1.0" encoding="UTF-8"?><!DOCTYPE svg PUBLIC "-//W3C//DTD SVG 1.1//EN" "http://www.w3.org/Graphics/SVG/1.1/DTD/svg11.dtd"><svg xmlns="http://www.w3.org/2000/svg" xmlns:xlink="http://www.w3.org/1999/xlink"><symbol id="buy" viewBox="0 0 512.003 512.003"><path d="M503.995 105.373c-6.868-8.498-17.076-13.371-28.004-13.371H85.737l-3.485-24.976C79.784 49.34 64.456 36.002 46.597 36.002H16c-8.836 0-16 7.164-16 16s7.164 16 16 16h30.597a4.016 4.016 0 013.961 3.447l43.189 309.529c2.468 17.687 17.796 31.024 35.655 31.024h17.349a47.774 47.774 0 00-2.752 16c0 26.467 21.533 48 48 48s48-21.533 48-48c0-5.609-.976-10.992-2.752-16h85.504a47.774 47.774 0 00-2.752 16c0 26.467 21.533 48 48 48s48-21.533 48-48c0-5.609-.976-10.992-2.752-16H448c8.836 0 16-7.164 16-16s-7.164-16-16-16H129.403a4.016 4.016 0 01-3.961-3.447l-3.984-28.553H436.56c16.858 0 31.663-11.965 35.205-28.458l39.429-183.997c2.291-10.681-.333-21.679-7.199-30.174zM208 428.002c0 8.822-7.178 16-16 16s-16-7.178-16-16 7.178-16 16-16 16 7.177 16 16zm176 0c0 8.822-7.178 16-16 16s-16-7.178-16-16 7.178-16 16-16 16 7.177 16 16zm95.905-299.163l-39.428 183.993a4.03 4.03 0 01-3.917 3.169H116.992l-26.79-192H475.99c1.583 0 2.569.808 3.117 1.486.547.677 1.129 1.808.798 3.352z"/></symbol><symbol id="checked"><path fill-rule="evenodd" clip-rule="evenodd" d="M14 28c7.732 0 14-6.268 14-14S21.732 0 14 0 0 6.268 0 14s6.268 14 14 14z"/><path fill-rule="evenodd" clip-rule="evenodd" d="M10.64 16.111a2 2 0 002.833 0l6.79-6.812a1.015 1.015 0 011.439 0 1.023 1.023 0 010 1.443l-8.93 8.96a1.015 1.015 0 01-1.508-.077l-3.966-3.98a1.023 1.023 0 010-1.443 1.015 1.015 0 011.439 0l1.903 1.91z"/></symbol><symbol id="delete"><path d="M424 64h-88V48c0-26.51-21.49-48-48-48h-64c-26.51 0-48 21.49-48 48v16H88c-22.091 0-40 17.909-40 40v32c0 8.837 7.163 16 16 16h384c8.837 0 16-7.163 16-16v-32c0-22.091-17.909-40-40-40zM208 48c0-8.82 7.18-16 16-16h64c8.82 0 16 7.18 16 16v16h-96zM78.364 184a5 5 0 00-4.994 5.238l13.2 277.042c1.22 25.64 22.28 45.72 47.94 45.72h242.98c25.66 0 46.72-20.08 47.94-45.72l13.2-277.042a5 5 0 00-4.994-5.238zM320 224c0-8.84 7.16-16 16-16s16 7.16 16 16v208c0 8.84-7.16 16-16 16s-16-7.16-16-16zm-80 0c0-8.84 7.16-16 16-16s16 7.16 16 16v208c0 8.84-7.16 16-16 16s-16-7.16-16-16zm-80 0c0-8.84 7.16-16 16-16s16 7.16 16 16v208c0 8.84-7.16 16-16 16s-16-7.16-16-16z"/></symbol><symbol id="facebook" viewBox="0 0 512 512"><path d="M297.277 508.668zm0 0M302.398 507.793c-1.02.187-2.039.36-3.058.535 1.02-.176 2.039-.348 3.058-.535zm0 0M285.137 510.34zm0 0M290.055 509.738zm0 0M309.367 506.41zm0 0M326.664 502.113c-.726.207-1.453.403-2.18.606.727-.203 1.454-.399 2.18-.606zm0 0M321.434 503.543c-.79.207-1.582.418-2.375.617.793-.2 1.586-.406 2.375-.617zm0 0M314.59 505.254c-.836.195-1.68.379-2.524.566.844-.187 1.688-.37 2.524-.566zm0 0M277.527 511.09zm0 0M512 256C512 114.637 397.363 0 256 0S0 114.637 0 256s114.637 256 256 256c1.504 0 3-.031 4.5-.059V312.656h-55V248.56h55V201.39c0-54.703 33.395-84.477 82.191-84.477 23.368 0 43.454 1.742 49.309 2.52v57.171h-33.648c-26.547 0-31.688 12.618-31.688 31.13v40.824h63.477l-8.274 64.097h-55.203V502.11C433.668 471.434 512 372.852 512 256zm0 0M272.914 511.43zm0 0M264.754 511.836zm0 0"/></symbol><symbol id="home"><path d="M426 495.983H86c-25.364 0-46-20.635-46-46v-242.02c0-8.836 7.163-16 16-16s16 7.164 16 16v242.02c0 7.72 6.28 14 14 14h340c7.72 0 14-6.28 14-14v-242.02c0-8.836 7.163-16 16-16s16 7.164 16 16v242.02c0 25.364-20.635 46-46 46z"/><path d="M496 263.958a15.945 15.945 0 01-11.313-4.687L285.698 60.284c-16.375-16.376-43.02-16.376-59.396 0L27.314 259.272c-6.248 6.249-16.379 6.249-22.627 0-6.249-6.248-6.249-16.379 0-22.627L203.675 37.656c28.852-28.852 75.799-28.852 104.65 0l198.988 198.988c6.249 6.249 6.249 16.379 0 22.627A15.943 15.943 0 01496 263.958zM320 495.983H192c-8.837 0-16-7.164-16-16v-142c0-27.57 22.43-50 50-50h60c27.57 0 50 22.43 50 50v142c0 8.836-7.163 16-16 16zm-112-32h96v-126c0-9.925-8.075-18-18-18h-60c-9.925 0-18 8.075-18 18z"/></symbol><symbol id="list" viewBox="0 0 64 64"><path d="M22 22a4 4 0 10-4-4 4 4 0 004 4zm0-6a2 2 0 11-2 2 2 2 0 012-2zM22 32a4 4 0 10-4-4 4 4 0 004 4zm0-6a2 2 0 11-2 2 2 2 0 012-2zM22 52a4 4 0 10-4-4 4 4 0 004 4zm0-6a2 2 0 11-2 2 2 2 0 012-2z"/><path d="M50 6H40V3a1 1 0 00-1-1H25a1 1 0 00-1 1v3H14a4 4 0 00-4 4v48a4 4 0 004 4h36a4 4 0 004-4V10a4 4 0 00-4-4zM26 4h12v6H26zm22 8v44H16V12zm4 46a2 2 0 01-2 2H14a2 2 0 01-2-2V10a2 2 0 012-2h10v2h-9a1 1 0 00-1 1v46a1 1 0 001 1h34a1 1 0 001-1V11a1 1 0 00-1-1h-9V8h10a2 2 0 012 2z"/><path d="M30 6h4v2h-4zM28 18h2v2h-2zM32 18h2v2h-2zM36 18h2v2h-2zM40 18h2v2h-2zM28 28h2v2h-2zM32 28h2v2h-2zM36 28h2v2h-2zM40 28h2v2h-2zM28 38h2v2h-2zM32 38h2v2h-2zM36 38h2v2h-2zM40 38h2v2h-2zM28 48h2v2h-2zM32 48h2v2h-2zM36 48h2v2h-2zM40 48h2v2h-2zM20.917 39.5l-1.21-1.21-1.414 1.414 2 2A1 1 0 0021 42h.055a1 1 0 00.726-.373l4-5-1.562-1.25z"/></symbol><symbol id="mark-task"><path d="M0 0h24v24H0z"/><mask id="mark-task-a" maskUnits="userSpaceOnUse" x="0" y="0" width="24" height="24"><path d="M0 0h24v24H0z"/></mask><g mask="url(#mark-task-a)"><path opacity=".3" d="M22 12c0 5.523-4.477 10-10 10S2 17.523 2 12 6.477 2 12 2s10 4.477 10 10z" stroke-width="2"/><path fill-rule="evenodd" clip-rule="evenodd" d="M10.556 12.946a2 2 0 002.829 0l8.653-8.653a1 1 0 111.414 1.414L12.674 16.485a1 1 0 01-1.482-.075l-3.9-3.899a1 1 0 111.415-1.414l1.849 1.85z"/></g></symbol><symbol id="mark"><path fill-rule="evenodd" clip-rule="evenodd" d="M28 14c0 7.732-6.268 14-14 14S0 21.732 0 14 6.268 0 14 0s14 6.268 14 14zm-14.185 1.346a2 2 0 01-2.829 0l-1.849-1.849a1 1 0 00-1.414 1.415l3.899 3.898a1 1 0 001.482.075l7.778-7.778a1 1 0 10-1.414-1.414l-5.653 5.653z"/></symbol><symbol id="twitter" viewBox="0 0 512 512"><path d="M512 97.248c-19.04 8.352-39.328 13.888-60.48 16.576 21.76-12.992 38.368-33.408 46.176-58.016-20.288 12.096-42.688 20.64-66.56 25.408C411.872 60.704 384.416 48 354.464 48c-58.112 0-104.896 47.168-104.896 104.992 0 8.32.704 16.32 2.432 23.936-87.264-4.256-164.48-46.08-216.352-109.792-9.056 15.712-14.368 33.696-14.368 53.056 0 36.352 18.72 68.576 46.624 87.232-16.864-.32-33.408-5.216-47.424-12.928v1.152c0 51.008 36.384 93.376 84.096 103.136-8.544 2.336-17.856 3.456-27.52 3.456-6.72 0-13.504-.384-19.872-1.792 13.6 41.568 52.192 72.128 98.08 73.12-35.712 27.936-81.056 44.768-130.144 44.768-8.608 0-16.864-.384-25.12-1.44C46.496 446.88 101.6 464 161.024 464c193.152 0 298.752-160 298.752-298.688 0-4.64-.16-9.12-.384-13.568 20.832-14.784 38.336-33.248 52.608-54.496z"/></symbol><symbol id="vk" viewBox="0 0 24 24"><path d="M19.915 13.028c-.388-.49-.277-.708 0-1.146.005-.005 3.208-4.431 3.538-5.932l.002-.001c.164-.547 0-.949-.793-.949h-2.624c-.668 0-.976.345-1.141.731 0 0-1.336 3.198-3.226 5.271-.61.599-.892.791-1.225.791-.164 0-.419-.192-.419-.739V5.949c0-.656-.187-.949-.74-.949H9.161c-.419 0-.668.306-.668.591 0 .622.945.765 1.043 2.515v3.797c0 .832-.151.985-.486.985-.892 0-3.057-3.211-4.34-6.886-.259-.713-.512-1.001-1.185-1.001H.9c-.749 0-.9.345-.9.731 0 .682.892 4.073 4.148 8.553C6.318 17.343 9.374 19 12.154 19c1.671 0 1.875-.368 1.875-1.001 0-2.922-.151-3.198.686-3.198.388 0 1.056.192 2.616 1.667C19.114 18.217 19.407 19 20.405 19h2.624c.748 0 1.127-.368.909-1.094-.499-1.527-3.871-4.668-4.023-4.878z"/></symbol></svg>