<svg width="28" height="28" viewBox="0 0 28 28" fill="none" xmlns="http://www.w3.org/2000/svg">
<path fill-rule="evenodd" clip-rule="evenodd" d="M14 28C21.732 28 28 21.732 28 14C28 6.26801 21.732 0 14 0C6.26801 0 0 6.26801 0 14C0 21.732 6.26801 28 14 28Z" fill="white"/>
<path fill-rule="evenodd" clip-rule="evenodd" d="M10.6398 16.1114C11.4213 16.8955 12.6912 16.8955 13.4727 16.1114L20.2634 9.29892C20.6606 8.90036 21.3048 8.90036 21.702 9.29892C22.0993 9.69748 22.0993 10.3437 21.702 10.7422L12.772 19.7011C12.3747 20.0996 11.7306 20.0996 11.3333 19.7011C11.3088 19.6765 11.2858 19.651 11.2643 19.6246L7.29796 15.6455C6.90068 15.2469 6.90068 14.6007 7.29796 14.2022C7.69524 13.8036 8.33936 13.8036 8.73664 14.2022L10.6398 16.1114Z" fill="#006CFF"/>
</svg>
